<svg width="24" height="24" viewBox="0 0 24 24" fill="none" xmlns="http://www.w3.org/2000/svg">
<path d="M3 7.5C3 7.22386 3.22386 7 3.5 7H20.5C20.7761 7 21 7.22386 21 7.5V7.5C21 7.77614 20.7761 8 20.5 8H3.5C3.22386 8 3 7.77614 3 7.5V7.5Z" fill="#DBE11F"/>
<path d="M3 11.5C3 11.2239 3.22386 11 3.5 11H20.5C20.7761 11 21 11.2239 21 11.5V11.5C21 11.7761 20.7761 12 20.5 12H3.5C3.22386 12 3 11.7761 3 11.5V11.5Z" fill="#DBE11F"/>
<path d="M3 15.5C3 15.2239 3.22386 15 3.5 15H20.5C20.7761 15 21 15.2239 21 15.5V15.5C21 15.7761 20.7761 16 20.5 16H3.5C3.22386 16 3 15.7761 3 15.5V15.5Z" fill="#DBE11F"/>
</svg>
