<svg width="24" height="24" viewBox="0 0 24 24" fill="none" xmlns="http://www.w3.org/2000/svg">
<path d="M15.2031 12.2916L21.0403 17.2948C21.1645 17.0105 21.2286 16.7035 21.2287 16.3932V8.45508L15.2031 12.2916Z" fill="#DBE11F"/>
<path d="M12.5273 12.1953L21.1513 6.70673C21.025 6.21962 20.741 5.78802 20.3436 5.47928C19.9462 5.17053 19.4578 5.00201 18.9546 5H5.28258C4.77937 5.00201 4.29097 5.17053 3.8936 5.47928C3.49623 5.78802 3.21224 6.21962 3.08594 6.70673L11.7107 12.1953C11.8329 12.2725 11.9745 12.3135 12.119 12.3135C12.2635 12.3135 12.4051 12.2725 12.5273 12.1953Z" fill="#DBE11F"/>
<path d="M3 8.45508V16.3932C3.00028 16.703 3.06441 17.0094 3.18837 17.2933L9.02558 12.2916L3 8.45508Z" fill="#DBE11F"/>
<path d="M13.8699 13.138L13.3382 13.4775C12.9721 13.7087 12.548 13.8314 12.115 13.8314C11.6819 13.8314 11.2578 13.7087 10.8917 13.4775L10.36 13.1372C10.3486 13.1478 10.344 13.1623 10.3327 13.1721L4.22656 18.4025C4.54916 18.5768 4.90959 18.6694 5.27627 18.6721H18.9483C19.3153 18.6694 19.6759 18.5768 19.9988 18.4025L13.8973 13.1721C13.8851 13.1623 13.8806 13.1478 13.8699 13.138Z" fill="#DBE11F"/>
</svg>
