<svg xmlns="http://www.w3.org/2000/svg" width="24" height="24" viewBox="0 0 24 24">
  <defs>
    <style>
      .cls-1 {
        fill-rule: evenodd;
      }
    </style>
  </defs>
  <path id="behince" class="cls-1" d="M4.168,7.372H9.744a2.5,2.5,0,0,1,2.187,3.173,1.86,1.86,0,0,1-1.417,1.263,1.728,1.728,0,0,1,1.664,1.232c0.368,1.265.161,3.154-1.448,3.79a4.655,4.655,0,0,1-1.14.277H4.168V7.372ZM6.386,9.067v2.218h2.8c0.662,0,.77-0.606.77-1.2a0.832,0.832,0,0,0-.832-1.017H6.386Zm0,3.7v2.619H9.22a1.127,1.127,0,0,0,1.109-1.294,1.215,1.215,0,0,0-1.171-1.325H6.386ZM14.427,9.1H18.4V7.958H14.4Zm5.392,5.669c0,1-.371,2.571-3.327,2.557a3.451,3.451,0,0,1-3.728-3.666A3.573,3.573,0,0,1,16.4,9.837c3.016,0,3.481,1.888,3.481,4.221H14.858a1.6,1.6,0,0,0,1.664,1.756c1.494,0,1.633-.8,1.633-1.047h1.664Zm-4.991-1.972h3.266a1.438,1.438,0,0,0-1.54-1.54A1.689,1.689,0,0,0,14.828,12.795Z"/>
</svg>
