<svg width="24" height="24" viewBox="0 0 24 24" fill="none" xmlns="http://www.w3.org/2000/svg">
<path d="M20.584 16.6542C20.5341 16.504 20.217 16.2828 19.6328 15.991C19.4746 15.899 19.2491 15.7741 18.9573 15.6155C18.6653 15.4569 18.4002 15.3108 18.1625 15.1773C17.9244 15.0438 17.7013 14.9145 17.4929 14.7895C17.4596 14.7645 17.3553 14.6916 17.1801 14.5703C17.0047 14.4494 16.8567 14.3597 16.7355 14.3012C16.6146 14.243 16.4956 14.2137 16.3788 14.2137C16.2119 14.2137 16.0035 14.3327 15.7533 14.5703C15.5031 14.8083 15.2736 15.0667 15.0651 15.3465C14.8565 15.6262 14.6354 15.8846 14.402 16.1224C14.1683 16.3603 13.9762 16.4792 13.8262 16.4792C13.7509 16.4792 13.657 16.4582 13.5444 16.4168C13.432 16.3751 13.3464 16.3393 13.2877 16.3105C13.2294 16.2811 13.1295 16.2229 12.9876 16.135C12.8454 16.0474 12.7663 15.9994 12.7496 15.991C11.6066 15.3567 10.6262 14.6308 9.80846 13.8133C8.99094 12.9954 8.2649 12.0152 7.6308 10.872C7.62247 10.8553 7.57438 10.776 7.48684 10.6342C7.39916 10.4923 7.34073 10.3923 7.31153 10.3338C7.28233 10.2754 7.24687 10.1898 7.20522 10.0772C7.16358 9.96461 7.14267 9.8708 7.14267 9.79562C7.14267 9.64552 7.2616 9.45351 7.49942 9.21986C7.73719 8.98633 7.99592 8.76513 8.27534 8.55669C8.55497 8.34824 8.81344 8.11871 9.0513 7.86848C9.28907 7.61813 9.40796 7.40964 9.40796 7.24279C9.40796 7.12605 9.37877 7.00704 9.32042 6.88609C9.26203 6.76488 9.17234 6.61697 9.0513 6.44167C8.93022 6.26645 8.85723 6.16225 8.83216 6.12871C8.70713 5.92027 8.57795 5.69709 8.44429 5.45927C8.31063 5.2215 8.16473 4.95646 8.00613 4.66446C7.84766 4.37259 7.72259 4.14722 7.63071 3.98871C7.33884 3.40475 7.11777 3.08754 6.96754 3.03766C6.9091 3.01263 6.82143 3 6.70473 3C6.47932 3 6.18526 3.04165 5.82233 3.1252C5.45927 3.20862 5.17358 3.29612 4.96496 3.38805C4.54776 3.56318 4.10558 4.07213 3.63827 4.91473C3.21274 5.69889 3 6.47503 3 7.24257C3 7.46768 3.0146 7.68669 3.04379 7.89965C3.07299 8.11239 3.12516 8.35232 3.20034 8.61937C3.27539 8.88634 3.33593 9.08466 3.38169 9.21381C3.4275 9.34304 3.51303 9.57454 3.63823 9.90841C3.76325 10.2422 3.83843 10.4465 3.86346 10.5216C4.15546 11.3393 4.50173 12.0694 4.90219 12.7119C5.56106 13.7799 6.46021 14.8835 7.5991 16.0225C8.73804 17.1614 9.84151 18.0605 10.9096 18.7197C11.552 19.1201 12.2823 19.4663 13.0999 19.7585C13.175 19.7834 13.3794 19.8584 13.713 19.9839C14.0468 20.109 14.2784 20.1945 14.4076 20.2404C14.5369 20.2864 14.7352 20.3469 15.002 20.4221C15.2693 20.4973 15.509 20.5495 15.7218 20.5789C15.9346 20.6077 16.1537 20.6226 16.3788 20.6226C17.1463 20.6226 17.9225 20.4097 18.7068 19.9842C19.5493 19.5171 20.0581 19.0748 20.2334 18.6573C20.3255 18.4489 20.4128 18.1631 20.4962 17.8C20.5799 17.4372 20.6215 17.1431 20.6215 16.9178C20.6217 16.8006 20.6091 16.7131 20.584 16.6542Z" fill="#DBE11F"/>
</svg>
