<svg width="247" height="50" viewBox="0 0 247 50" fill="none" xmlns="http://www.w3.org/2000/svg">
<path d="M82.8123 19.7331L82.7521 10.736L78.4956 17.9539H75.5844L71.3279 11.0392V19.7331H65.3047V0H70.7457L77.1303 10.5136L83.3544 0H88.7954L88.8556 19.7331H82.8123Z" fill="#DBE11F"/>
<path d="M97.9319 16.296L96.6068 19.7331H89.8809L98.474 0H104.979L113.552 19.7331H106.726L105.401 16.296H97.9319ZM103.554 11.5043L101.646 6.55076L99.7389 11.5043H103.554Z" fill="#DBE11F"/>
<path d="M124.975 12.5758V19.7331H118.369V12.495L110.98 0H117.947L121.943 6.83381L125.978 0H132.363L124.975 12.5758Z" fill="#DBE11F"/>
<path d="M137.866 16.296L136.54 19.7331H129.814L138.408 0H144.913L153.486 19.7331H146.659L145.334 16.296H137.866ZM143.487 11.5043L141.58 6.55076L139.673 11.5043H143.487Z" fill="#DBE11F"/>
<path d="M162.501 13.2026L161.015 14.8605V19.7331H154.51V0H161.015V7.15731L167.46 0H174.648L166.797 8.6939L175.029 19.7534H167.379L162.481 13.2026H162.501Z" fill="#DBE11F"/>
<path d="M97.2082 29.8018L90.944 49.535H83.8567L80.6844 38.981L77.3516 49.535H70.2642L64 29.8018H70.8063L74.2195 41.023L77.8334 29.8018H83.9169L87.3301 41.1646L90.944 29.8018H97.2082Z" fill="#DBE11F"/>
<path d="M102.971 48.6658C101.284 47.7762 99.9791 46.5631 99.0153 44.986C98.0717 43.409 97.5898 41.65 97.5898 39.6686C97.5898 37.6872 98.0717 35.9282 99.0153 34.3512C99.959 32.7741 101.284 31.561 102.971 30.6714C104.657 29.7818 106.544 29.337 108.653 29.337C110.761 29.337 112.648 29.7818 114.334 30.6714C116.021 31.561 117.326 32.7741 118.29 34.3512C119.233 35.9282 119.715 37.6872 119.715 39.6686C119.715 41.65 119.233 43.409 118.29 44.986C117.346 46.5631 116.021 47.7762 114.334 48.6658C112.648 49.5554 110.761 50.0002 108.653 50.0002C106.544 50.0002 104.657 49.5554 102.971 48.6658ZM110.881 43.9953C111.544 43.591 112.066 43.0248 112.467 42.2768C112.869 41.5287 113.05 40.6593 113.05 39.6686C113.05 38.6779 112.849 37.8085 112.467 37.0604C112.066 36.3123 111.544 35.7462 110.881 35.3419C110.219 34.9375 109.476 34.7353 108.653 34.7353C107.829 34.7353 107.087 34.9375 106.424 35.3419C105.761 35.7462 105.239 36.3123 104.838 37.0604C104.436 37.8085 104.256 38.6779 104.256 39.6686C104.256 40.6593 104.456 41.5287 104.838 42.2768C105.239 43.0248 105.761 43.591 106.424 43.9953C107.087 44.3997 107.829 44.6019 108.653 44.6019C109.476 44.6019 110.219 44.3997 110.881 43.9953Z" fill="#DBE11F"/>
<path d="M128.75 44.5815V49.535H122.145V29.8018H131.581C133.388 29.8018 134.974 30.1051 136.319 30.7117C137.664 31.3182 138.708 32.1876 139.431 33.2996C140.154 34.4318 140.515 35.746 140.515 37.2422C140.515 38.6575 140.194 39.8908 139.572 40.9422C138.929 41.9935 138.026 42.8225 136.821 43.4492L140.937 49.535H133.89L130.557 44.5815H128.75ZM133.167 35.5439C132.725 35.1395 132.043 34.9373 131.159 34.9373H128.75V39.5673H131.159C132.063 39.5673 132.725 39.3651 133.167 38.9608C133.609 38.5564 133.83 37.9903 133.83 37.2624C133.83 36.5346 133.609 35.9684 133.167 35.5641V35.5439Z" fill="#DBE11F"/>
<path d="M150.977 43.0044L149.491 44.6623V49.535H142.986V29.8018H149.491V36.9591L155.936 29.8018H163.124L155.274 38.4957L163.506 49.5552H155.856L150.957 43.0044H150.977Z" fill="#DBE11F"/>
<path d="M166.556 49.4334C165.01 49.0694 163.746 48.564 162.762 47.9574L164.89 43.105C165.814 43.6509 166.878 44.0957 168.022 44.4192C169.187 44.7427 170.291 44.9045 171.355 44.9045C172.278 44.9045 172.921 44.8236 173.322 44.6416C173.724 44.4597 173.905 44.1968 173.905 43.8329C173.905 43.4285 173.644 43.105 173.142 42.9028C172.62 42.7007 171.777 42.4783 170.612 42.2356C169.106 41.9121 167.841 41.5684 166.837 41.2045C165.834 40.8406 164.95 40.234 164.207 39.4051C163.464 38.5761 163.083 37.4439 163.083 36.0084C163.083 34.775 163.424 33.6428 164.127 32.6319C164.81 31.621 165.854 30.8122 167.219 30.2259C168.584 29.6396 170.251 29.3565 172.218 29.3565C173.563 29.3565 174.889 29.4981 176.174 29.8013C177.479 30.0844 178.623 30.5292 179.607 31.0751L177.619 35.8871C175.692 34.9166 173.885 34.4111 172.158 34.4111C170.431 34.4111 169.608 34.8155 169.608 35.6444C169.608 36.0488 169.869 36.3319 170.371 36.534C170.873 36.7362 171.696 36.9384 172.861 37.1608C174.346 37.4439 175.611 37.7674 176.635 38.1313C177.659 38.4952 178.563 39.1018 179.306 39.9307C180.069 40.7597 180.43 41.8919 180.43 43.3072C180.43 44.5405 180.089 45.6728 179.386 46.6837C178.703 47.6946 177.659 48.4831 176.294 49.0897C174.929 49.676 173.262 49.9793 171.295 49.9793C169.668 49.9793 168.082 49.7973 166.556 49.4334Z" fill="#DBE11F"/>
<path d="M201.711 29.8018V49.535H195.106V42.2564H189.002V49.535H182.396V29.8018H189.002V36.7974H195.106V29.8018H201.711Z" fill="#DBE11F"/>
<path d="M209.502 48.6658C207.815 47.7762 206.51 46.5631 205.547 44.986C204.603 43.409 204.121 41.65 204.121 39.6686C204.121 37.6872 204.603 35.9282 205.547 34.3512C206.49 32.7741 207.815 31.561 209.502 30.6714C211.188 29.7818 213.076 29.337 215.184 29.337C217.292 29.337 219.179 29.7818 220.866 30.6714C222.552 31.561 223.857 32.7741 224.821 34.3512C225.765 35.9282 226.247 37.6872 226.247 39.6686C226.247 41.65 225.765 43.409 224.821 44.986C223.877 46.5631 222.552 47.7762 220.866 48.6658C219.179 49.5554 217.292 50.0002 215.184 50.0002C213.076 50.0002 211.188 49.5554 209.502 48.6658ZM217.412 43.9953C218.075 43.591 218.597 43.0248 218.999 42.2768C219.4 41.5287 219.581 40.6593 219.581 39.6686C219.581 38.6779 219.38 37.8085 218.999 37.0604C218.597 36.3123 218.075 35.7462 217.412 35.3419C216.75 34.9375 216.007 34.7353 215.184 34.7353C214.361 34.7353 213.618 34.9375 212.955 35.3419C212.293 35.7462 211.771 36.3123 211.369 37.0604C210.968 37.8085 210.787 38.6779 210.787 39.6686C210.787 40.6593 210.988 41.5287 211.369 42.2768C211.771 43.0248 212.293 43.591 212.955 43.9953C213.618 44.3997 214.361 44.6019 215.184 44.6019C216.007 44.6019 216.75 44.3997 217.412 43.9953Z" fill="#DBE11F"/>
<path d="M242.81 30.7117C244.155 31.3182 245.199 32.1876 245.922 33.2996C246.644 34.4318 247.006 35.746 247.006 37.2422C247.006 38.7384 246.644 40.0526 245.922 41.1848C245.199 42.317 244.155 43.1864 242.81 43.7727C241.464 44.3793 239.878 44.6826 238.071 44.6826H235.24V49.535H228.635V29.8018H238.071C239.878 29.8018 241.464 30.1051 242.81 30.7117ZM239.677 38.9608C240.119 38.5564 240.34 37.9903 240.34 37.2624C240.34 36.5346 240.119 35.9684 239.677 35.5641C239.236 35.1597 238.553 34.9575 237.67 34.9575H235.26V39.5875H237.67C238.573 39.5875 239.236 39.3854 239.677 38.981V38.9608Z" fill="#DBE11F"/>
<path d="M35.2367 38.4359L29.9768 40.0092L29.6664 19.9966L19.4414 43.2031L19.4258 43.1716V43.2031L14.1969 44.7764L14.0418 24.7638L2.4668 49.5593H48.8753V7.77197L35.2367 38.4359Z" fill="#DBE11F"/>
<path d="M13.9489 10.73L19.0847 9.1567L19.2865 28.9648L29.4495 5.9786L34.6163 4.38955L34.9732 24.1032L45.8499 0H0V40.8276L13.9489 10.73Z" fill="#DBE11F"/>
</svg>
