<svg width="24" height="24" viewBox="0 0 24 24" fill="none" xmlns="http://www.w3.org/2000/svg">
<path d="M7.58134 20H4.26423V9.31786H7.58134V20ZM5.921 7.86071C4.86052 7.86071 4 6.98214 4 5.92143C4 4.86071 4.86052 4 5.921 4C6.98148 4 7.842 4.86071 7.842 5.92143C7.842 6.98214 6.98148 7.86071 5.921 7.86071ZM19.9964 20H16.6865V14.8C16.6865 13.5607 16.6615 11.9714 14.9618 11.9714C13.2372 11.9714 12.973 13.3179 12.973 14.7107V20H9.65945V9.31786H12.8409V10.775H12.8873C13.3301 9.93571 14.412 9.05 16.0259 9.05C19.3823 9.05 20 11.2607 20 14.1321V20H19.9964Z" fill="#DBE11F"/>
</svg>
