<svg xmlns="http://www.w3.org/2000/svg" xmlns:xlink="http://www.w3.org/1999/xlink"><symbol id="icon-be" viewBox="0 0 24 24"><path d="M4.168 7.372h5.576a2.5 2.5 0 012.187 3.173 1.86 1.86 0 01-1.417 1.263 1.728 1.728 0 011.664 1.232c.368 1.265.161 3.154-1.448 3.79a4.655 4.655 0 01-1.14.277H4.168V7.372zm2.218 1.695v2.218h2.8c.662 0 .77-.606.77-1.2a.832.832 0 00-.832-1.017H6.386zm0 3.7v2.619H9.22a1.127 1.127 0 001.109-1.294 1.215 1.215 0 00-1.171-1.325H6.386zM14.427 9.1H18.4V7.958h-4zm5.392 5.669c0 1-.371 2.571-3.327 2.557a3.451 3.451 0 01-3.728-3.666A3.573 3.573 0 0116.4 9.837c3.016 0 3.481 1.888 3.481 4.221h-5.023a1.6 1.6 0 001.664 1.756c1.494 0 1.633-.8 1.633-1.047h1.664zm-4.991-1.972h3.266a1.438 1.438 0 00-1.54-1.54 1.689 1.689 0 00-1.726 1.538z" fill-rule="evenodd"/></symbol><symbol id="icon-close" viewBox="0 0 24 24"><path d="M18.7 17.3c.4.4.4 1 0 1.4-.2.2-.4.3-.7.3-.3 0-.5-.1-.7-.3L12 13.4l-5.3 5.3c-.2.2-.4.3-.7.3-.3 0-.5-.1-.7-.3-.4-.4-.4-1 0-1.4l5.3-5.3-5.3-5.3c-.4-.4-.4-1 0-1.4.4-.4 1-.4 1.4 0l5.3 5.3 5.3-5.3c.4-.4 1-.4 1.4 0 .4.4.4 1 0 1.4L13.4 12l5.3 5.3z"/></symbol><symbol id="icon-down" viewBox="0 0 12 5"><path d="M10.966.118L5.92 3.87.875.118a.581.581 0 00-.752.058c-.193.212-.15.503.065.677l5.389 4.024s.214.116.343.116a.562.562 0 00.344-.116L11.653.853c.236-.174.257-.484.064-.677a.561.561 0 00-.751-.058z"/></symbol><symbol id="icon-fb" viewBox="0 0 24 24"><path d="M14.54 6.656H16V4.113A18.927 18.927 0 0013.873 4c-2.106 0-3.549 1.325-3.549 3.76V10H8v2.844h2.324V20h2.849v-7.156h2.23L15.758 10h-2.585V8.04c0-.821.22-1.384 1.366-1.384z"/></symbol><symbol id="icon-in" viewBox="0 0 24 24"><path d="M7.581 20H4.264V9.318h3.317V20zM5.921 7.86C4.861 7.86 4 6.983 4 5.922a1.922 1.922 0 013.842 0c0 1.061-.86 1.94-1.921 1.94zM19.996 20h-3.31v-5.2c0-1.24-.024-2.829-1.724-2.829-1.725 0-1.989 1.347-1.989 2.74V20H9.659V9.318h3.182v1.457h.046c.443-.84 1.525-1.725 3.139-1.725 3.356 0 3.974 2.21 3.974 5.082V20h-.004z"/></symbol><symbol id="icon-inst" viewBox="0 0 24 24"><path d="M12.002 7.898A4.095 4.095 0 007.9 12a4.095 4.095 0 004.102 4.102A4.095 4.095 0 0016.103 12a4.095 4.095 0 00-4.101-4.102zm0 6.769A2.672 2.672 0 019.335 12a2.67 2.67 0 012.667-2.667A2.67 2.67 0 0114.668 12c0 1.47-1.2 2.667-2.666 2.667zm5.225-6.937a.954.954 0 01-.956.957.957.957 0 11.957-.957zm2.717.971c-.06-1.282-.354-2.417-1.292-3.352-.936-.936-2.07-1.229-3.352-1.293-1.32-.075-5.28-.075-6.6 0-1.278.06-2.413.354-3.352 1.29-.938.934-1.228 2.07-1.292 3.352-.075 1.32-.075 5.28 0 6.6.06 1.283.354 2.418 1.292 3.353.94.936 2.07 1.229 3.352 1.293 1.32.075 5.28.075 6.6 0 1.281-.06 2.416-.354 3.352-1.293.935-.935 1.227-2.07 1.292-3.352.075-1.321.075-5.277 0-6.598zm-1.706 8.015a2.7 2.7 0 01-1.521 1.521c-1.053.418-3.552.322-4.715.322-1.164 0-3.666.092-4.715-.322a2.7 2.7 0 01-1.521-1.52c-.418-1.054-.321-3.553-.321-4.717 0-1.164-.093-3.667.321-4.716a2.7 2.7 0 011.52-1.521c1.054-.418 3.552-.322 4.716-.322 1.163 0 3.666-.092 4.715.322a2.7 2.7 0 011.52 1.52c.418 1.054.322 3.553.322 4.717 0 1.164.096 3.667-.321 4.716z"/></symbol><symbol id="icon-left" viewBox="0 0 24 24"><path d="M8.3 11.3l6-6c.2-.2.4-.3.7-.3.3 0 .5.1.7.3.4.4.4 1 0 1.4L10.4 12l5.3 5.3c.4.4.4 1 0 1.4-.4.4-1 .4-1.4 0l-6-6c-.4-.4-.4-1 0-1.4z"/></symbol><symbol id="icon-mail" viewBox="0 0 24 24"><path d="M15.203 12.292l5.837 5.003c.125-.285.189-.592.189-.902V8.455l-6.026 3.837zM12.527 12.195l8.624-5.488A2.279 2.279 0 0018.955 5H5.283a2.279 2.279 0 00-2.197 1.707l8.625 5.488a.765.765 0 00.816 0zM3 8.455v7.938c0 .31.064.616.188.9l5.838-5.001L3 8.455zM13.87 13.138l-.532.34a2.29 2.29 0 01-2.446 0l-.532-.34c-.011.01-.016.024-.027.034l-6.106 5.23c.322.175.683.267 1.05.27h13.671a2.246 2.246 0 001.05-.27l-6.1-5.23c-.013-.01-.017-.024-.028-.034z"/></symbol><symbol id="icon-menu" viewBox="0 0 24 24"><path d="M3 7.5a.5.5 0 01.5-.5h17a.5.5 0 010 1h-17a.5.5 0 01-.5-.5zM3 11.5a.5.5 0 01.5-.5h17a.5.5 0 010 1h-17a.5.5 0 01-.5-.5zM3 15.5a.5.5 0 01.5-.5h17a.5.5 0 010 1h-17a.5.5 0 01-.5-.5z"/></symbol><symbol id="icon-phone" viewBox="0 0 24 24"><path d="M20.584 16.654c-.05-.15-.367-.371-.951-.663a29.093 29.093 0 00-.676-.375 64.66 64.66 0 01-.794-.439 26.487 26.487 0 01-.67-.387 16.774 16.774 0 00-.313-.22 3.515 3.515 0 00-.445-.269.819.819 0 00-.356-.087c-.167 0-.376.119-.626.356-.25.238-.48.497-.688.777-.208.28-.43.538-.663.775-.234.238-.426.357-.576.357a.853.853 0 01-.282-.062 2.92 2.92 0 01-.256-.107 4.624 4.624 0 01-.3-.175 7.751 7.751 0 00-.238-.144c-1.143-.634-2.124-1.36-2.942-2.178-.817-.818-1.543-1.798-2.177-2.941a7.28 7.28 0 00-.144-.238 4.534 4.534 0 01-.175-.3 2.723 2.723 0 01-.107-.257.847.847 0 01-.062-.281c0-.15.119-.342.356-.576.238-.234.497-.455.776-.663.28-.209.538-.438.776-.689.238-.25.357-.458.357-.625a.817.817 0 00-.088-.357 3.478 3.478 0 00-.269-.444c-.12-.176-.194-.28-.219-.313a27.455 27.455 0 01-.388-.67c-.133-.237-.28-.503-.438-.795a29.751 29.751 0 00-.375-.675c-.292-.584-.513-.901-.663-.951A.701.701 0 006.705 3c-.226 0-.52.042-.883.125-.363.084-.648.171-.857.263-.417.175-.86.684-1.327 1.527C3.213 5.699 3 6.475 3 7.243c0 .225.015.444.044.657a5.4 5.4 0 00.156.72c.075.266.136.465.182.594.046.129.131.36.256.694.125.334.2.539.225.614.292.817.639 1.547 1.04 2.19.658 1.068 1.557 2.171 2.696 3.31 1.139 1.14 2.243 2.039 3.31 2.698.643.4 1.373.746 2.19 1.039.076.024.28.1.614.225.334.125.565.21.695.256.129.046.327.107.594.182.267.075.507.127.72.157.213.029.432.044.657.044.767 0 1.543-.213 2.328-.639.842-.467 1.351-.91 1.526-1.327.093-.208.18-.494.263-.857.084-.363.126-.657.126-.882a.7.7 0 00-.038-.264z"/></symbol><symbol id="icon-right" viewBox="0 0 24 24"><path d="M15.7 12.7l-6 6c-.2.2-.4.3-.7.3-.3 0-.5-.1-.7-.3-.4-.4-.4-1 0-1.4l5.3-5.3-5.3-5.3c-.4-.4-.4-1 0-1.4.4-.4 1-.4 1.4 0l6 6c.4.4.4 1 0 1.4z"/></symbol><symbol id="icon-tgm" viewBox="0 0 24 24"><path d="M21.175 3.198l-18.49 7.095c-.743.33-.995.992-.179 1.352l4.743 1.5L18.72 6.09c.625-.443 1.266-.325.715.162l-9.85 8.876-.31 3.756c.287.58.812.583 1.146.294l2.726-2.566 4.667 3.478c1.084.64 1.674.227 1.907-.944l3.061-14.426c.318-1.44-.224-2.075-1.606-1.523z"/></symbol> <view id="icon-be-view-dark" viewBox="0 0 24 24"/><view id="icon-be-view-white" viewBox="0 34 24 24"/><view id="icon-be-view-accent" viewBox="0 68 24 24"/><view id="icon-close-view-dark" viewBox="0 102 24 24"/><view id="icon-close-view-white" viewBox="0 136 24 24"/><view id="icon-close-view-accent" viewBox="0 170 24 24"/><view id="icon-down-view-dark" viewBox="0 204 12 5"/><view id="icon-down-view-white" viewBox="0 219 12 5"/><view id="icon-down-view-accent" viewBox="0 234 12 5"/><view id="icon-fb-view-dark" viewBox="0 249 24 24"/><view id="icon-fb-view-white" viewBox="0 283 24 24"/><view id="icon-fb-view-accent" viewBox="0 317 24 24"/><view id="icon-in-view-dark" viewBox="0 351 24 24"/><view id="icon-in-view-white" viewBox="0 385 24 24"/><view id="icon-in-view-accent" viewBox="0 419 24 24"/><view id="icon-inst-view-dark" viewBox="0 453 24 24"/><view id="icon-inst-view-white" viewBox="0 487 24 24"/><view id="icon-inst-view-accent" viewBox="0 521 24 24"/><view id="icon-left-view-dark" viewBox="0 555 24 24"/><view id="icon-left-view-white" viewBox="0 589 24 24"/><view id="icon-left-view-accent" viewBox="0 623 24 24"/><view id="icon-mail-view-dark" viewBox="0 657 24 24"/><view id="icon-mail-view-white" viewBox="0 691 24 24"/><view id="icon-mail-view-accent" viewBox="0 725 24 24"/><view id="icon-menu-view-dark" viewBox="0 759 24 24"/><view id="icon-menu-view-white" viewBox="0 793 24 24"/><view id="icon-menu-view-accent" viewBox="0 827 24 24"/><view id="icon-phone-view-dark" viewBox="0 861 24 24"/><view id="icon-phone-view-white" viewBox="0 895 24 24"/><view id="icon-phone-view-accent" viewBox="0 929 24 24"/><view id="icon-right-view-dark" viewBox="0 963 24 24"/><view id="icon-right-view-white" viewBox="0 997 24 24"/><view id="icon-right-view-accent" viewBox="0 1031 24 24"/><view id="icon-tgm-view-dark" viewBox="0 1065 24 24"/><view id="icon-tgm-view-white" viewBox="0 1099 24 24"/><view id="icon-tgm-view-accent" viewBox="0 1133 24 24"/> <use xlink:href="#icon-be" x="0" y="0" width="24" height="24" style="fill:#111213"/><use xlink:href="#icon-be" x="0" y="34" width="24" height="24" style="fill:#ffffff"/><use xlink:href="#icon-be" x="0" y="68" width="24" height="24" style="fill:#dbe11f"/><use xlink:href="#icon-close" x="0" y="102" width="24" height="24" style="fill:#111213"/><use xlink:href="#icon-close" x="0" y="136" width="24" height="24" style="fill:#ffffff"/><use xlink:href="#icon-close" x="0" y="170" width="24" height="24" style="fill:#dbe11f"/><use xlink:href="#icon-down" x="0" y="204" width="12" height="5" style="fill:#111213"/><use xlink:href="#icon-down" x="0" y="219" width="12" height="5" style="fill:#ffffff"/><use xlink:href="#icon-down" x="0" y="234" width="12" height="5" style="fill:#dbe11f"/><use xlink:href="#icon-fb" x="0" y="249" width="24" height="24" style="fill:#111213"/><use xlink:href="#icon-fb" x="0" y="283" width="24" height="24" style="fill:#ffffff"/><use xlink:href="#icon-fb" x="0" y="317" width="24" height="24" style="fill:#dbe11f"/><use xlink:href="#icon-in" x="0" y="351" width="24" height="24" style="fill:#111213"/><use xlink:href="#icon-in" x="0" y="385" width="24" height="24" style="fill:#ffffff"/><use xlink:href="#icon-in" x="0" y="419" width="24" height="24" style="fill:#dbe11f"/><use xlink:href="#icon-inst" x="0" y="453" width="24" height="24" style="fill:#111213"/><use xlink:href="#icon-inst" x="0" y="487" width="24" height="24" style="fill:#ffffff"/><use xlink:href="#icon-inst" x="0" y="521" width="24" height="24" style="fill:#dbe11f"/><use xlink:href="#icon-left" x="0" y="555" width="24" height="24" style="fill:#111213"/><use xlink:href="#icon-left" x="0" y="589" width="24" height="24" style="fill:#ffffff"/><use xlink:href="#icon-left" x="0" y="623" width="24" height="24" style="fill:#dbe11f"/><use xlink:href="#icon-mail" x="0" y="657" width="24" height="24" style="fill:#111213"/><use xlink:href="#icon-mail" x="0" y="691" width="24" height="24" style="fill:#ffffff"/><use xlink:href="#icon-mail" x="0" y="725" width="24" height="24" style="fill:#dbe11f"/><use xlink:href="#icon-menu" x="0" y="759" width="24" height="24" style="fill:#111213"/><use xlink:href="#icon-menu" x="0" y="793" width="24" height="24" style="fill:#ffffff"/><use xlink:href="#icon-menu" x="0" y="827" width="24" height="24" style="fill:#dbe11f"/><use xlink:href="#icon-phone" x="0" y="861" width="24" height="24" style="fill:#111213"/><use xlink:href="#icon-phone" x="0" y="895" width="24" height="24" style="fill:#ffffff"/><use xlink:href="#icon-phone" x="0" y="929" width="24" height="24" style="fill:#dbe11f"/><use xlink:href="#icon-right" x="0" y="963" width="24" height="24" style="fill:#111213"/><use xlink:href="#icon-right" x="0" y="997" width="24" height="24" style="fill:#ffffff"/><use xlink:href="#icon-right" x="0" y="1031" width="24" height="24" style="fill:#dbe11f"/><use xlink:href="#icon-tgm" x="0" y="1065" width="24" height="24" style="fill:#111213"/><use xlink:href="#icon-tgm" x="0" y="1099" width="24" height="24" style="fill:#ffffff"/><use xlink:href="#icon-tgm" x="0" y="1133" width="24" height="24" style="fill:#dbe11f"/></svg>