<svg xmlns="http://www.w3.org/2000/svg" xmlns:xlink="http://www.w3.org/1999/xlink"><symbol id="icon-close" viewBox="0 0 24 24"><path d="M18.7 17.3c.4.4.4 1 0 1.4-.2.2-.4.3-.7.3-.3 0-.5-.1-.7-.3L12 13.4l-5.3 5.3c-.2.2-.4.3-.7.3-.3 0-.5-.1-.7-.3-.4-.4-.4-1 0-1.4l5.3-5.3-5.3-5.3c-.4-.4-.4-1 0-1.4.4-.4 1-.4 1.4 0l5.3 5.3 5.3-5.3c.4-.4 1-.4 1.4 0 .4.4.4 1 0 1.4L13.4 12l5.3 5.3z"/></symbol><symbol id="icon-down" viewBox="0 0 12 5"><path d="M10.966.118L5.92 3.87.875.118a.581.581 0 00-.752.058c-.193.212-.15.503.065.677l5.389 4.024s.214.116.343.116a.562.562 0 00.344-.116L11.653.853c.236-.174.257-.484.064-.677a.561.561 0 00-.751-.058z"/></symbol><symbol id="icon-fb" viewBox="0 0 24 24"><path d="M14.54 6.656H16V4.113A18.927 18.927 0 0013.873 4c-2.106 0-3.549 1.325-3.549 3.76V10H8v2.844h2.324V20h2.849v-7.156h2.23L15.758 10h-2.585V8.04c0-.821.22-1.384 1.366-1.384z"/></symbol><symbol id="icon-in" viewBox="0 0 24 24"><path d="M7.581 20H4.264V9.318h3.317V20zM5.921 7.86C4.861 7.86 4 6.983 4 5.922a1.922 1.922 0 013.842 0c0 1.061-.86 1.94-1.921 1.94zM19.996 20h-3.31v-5.2c0-1.24-.024-2.829-1.724-2.829-1.725 0-1.989 1.347-1.989 2.74V20H9.659V9.318h3.182v1.457h.046c.443-.84 1.525-1.725 3.139-1.725 3.356 0 3.974 2.21 3.974 5.082V20h-.004z"/></symbol><symbol id="icon-inst" viewBox="0 0 24 24"><path d="M12.002 7.898A4.095 4.095 0 007.9 12a4.095 4.095 0 004.102 4.102A4.095 4.095 0 0016.103 12a4.095 4.095 0 00-4.101-4.102zm0 6.769A2.672 2.672 0 019.335 12a2.67 2.67 0 012.667-2.667A2.67 2.67 0 0114.668 12c0 1.47-1.2 2.667-2.666 2.667zm5.225-6.937a.954.954 0 01-.956.957.957.957 0 11.957-.957zm2.717.971c-.06-1.282-.354-2.417-1.292-3.352-.936-.936-2.07-1.229-3.352-1.293-1.32-.075-5.28-.075-6.6 0-1.278.06-2.413.354-3.352 1.29-.938.934-1.228 2.07-1.292 3.352-.075 1.32-.075 5.28 0 6.6.06 1.283.354 2.418 1.292 3.353.94.936 2.07 1.229 3.352 1.293 1.32.075 5.28.075 6.6 0 1.281-.06 2.416-.354 3.352-1.293.935-.935 1.227-2.07 1.292-3.352.075-1.321.075-5.277 0-6.598zm-1.706 8.015a2.7 2.7 0 01-1.521 1.521c-1.053.418-3.552.322-4.715.322-1.164 0-3.666.092-4.715-.322a2.7 2.7 0 01-1.521-1.52c-.418-1.054-.321-3.553-.321-4.717 0-1.164-.093-3.667.321-4.716a2.7 2.7 0 011.52-1.521c1.054-.418 3.552-.322 4.716-.322 1.163 0 3.666-.092 4.715.322a2.7 2.7 0 011.52 1.52c.418 1.054.322 3.553.322 4.717 0 1.164.096 3.667-.321 4.716z"/></symbol><symbol id="icon-left" viewBox="0 0 24 24"><path d="M8.3 11.3l6-6c.2-.2.4-.3.7-.3.3 0 .5.1.7.3.4.4.4 1 0 1.4L10.4 12l5.3 5.3c.4.4.4 1 0 1.4-.4.4-1 .4-1.4 0l-6-6c-.4-.4-.4-1 0-1.4z"/></symbol><symbol id="icon-logo-short" viewBox="0 0 49 50"><path d="M35.237 38.436l-5.26 1.573-.155-10.053-.156-9.96-10.225 23.207-.015-.031v.031l-5.23 1.573-.077-10.053-.077-9.96L2.467 49.56h46.408V7.772L35.237 38.436z"/><path d="M13.949 10.73l5.136-1.573.201 19.808L29.45 5.979l5.167-1.59.357 19.714L45.85 0H0v40.828L13.949 10.73z"/></symbol><symbol id="icon-logo" viewBox="0 0 247 50"><path d="M82.812 19.733l-.06-8.997-4.256 7.218h-2.912l-4.256-6.915v8.694h-6.023V0h5.44l6.385 10.514L83.354 0h5.441l.06 19.733h-6.043zM97.932 16.296l-1.325 3.437H89.88L98.474 0h6.505l8.573 19.733h-6.826l-1.325-3.437h-7.47zm5.622-4.792l-1.908-4.953-1.907 4.953h3.815zM124.975 12.576v7.157h-6.606v-7.238L110.98 0h6.967l3.996 6.834L125.978 0h6.385l-7.388 12.576zM137.866 16.296l-1.326 3.437h-6.726L138.408 0h6.505l8.573 19.733h-6.827l-1.325-3.437h-7.468zm5.621-4.792l-1.907-4.953-1.907 4.953h3.814zM162.501 13.203l-1.486 1.658v4.872h-6.505V0h6.505v7.157L167.46 0h7.188l-7.851 8.694 8.232 11.06h-7.65l-4.898-6.551h.02zM97.208 29.802l-6.264 19.733h-7.087l-3.173-10.554-3.332 10.554h-7.088L64 29.802h6.806l3.413 11.221 3.614-11.221h6.084l3.413 11.363 3.614-11.363h6.264zM102.971 48.666c-1.687-.89-2.992-2.103-3.956-3.68-.943-1.577-1.425-3.336-1.425-5.317 0-1.982.482-3.74 1.425-5.318.944-1.577 2.269-2.79 3.956-3.68 1.686-.89 3.573-1.334 5.682-1.334 2.108 0 3.995.445 5.681 1.334 1.687.89 2.992 2.103 3.956 3.68.943 1.577 1.425 3.336 1.425 5.318 0 1.981-.482 3.74-1.425 5.317-.944 1.577-2.269 2.79-3.956 3.68-1.686.89-3.573 1.334-5.681 1.334-2.109 0-3.996-.445-5.682-1.334zm7.91-4.67c.663-.405 1.185-.971 1.586-1.72.402-.747.583-1.617.583-2.607 0-.991-.201-1.86-.583-2.609-.401-.748-.923-1.314-1.586-1.718-.662-.404-1.405-.607-2.228-.607-.824 0-1.566.203-2.229.607-.663.404-1.185.97-1.586 1.718-.402.748-.582 1.618-.582 2.609 0 .99.2 1.86.582 2.608.401.748.923 1.314 1.586 1.718a4.193 4.193 0 002.229.607c.823 0 1.566-.202 2.228-.607zM128.75 44.581v4.954h-6.605V29.802h9.436c1.807 0 3.393.303 4.738.91 1.345.606 2.389 1.476 3.112 2.588.723 1.132 1.084 2.446 1.084 3.942 0 1.416-.321 2.649-.943 3.7-.643 1.051-1.546 1.88-2.751 2.507l4.116 6.086h-7.047l-3.333-4.953h-1.807zm4.417-9.037c-.442-.404-1.124-.607-2.008-.607h-2.409v4.63h2.409c.904 0 1.566-.202 2.008-.606.442-.405.663-.97.663-1.699 0-.727-.221-1.294-.663-1.698v-.02zM150.977 43.004l-1.486 1.658v4.873h-6.505V29.802h6.505v7.157l6.445-7.157h7.188l-7.85 8.694 8.232 11.06h-7.65l-4.899-6.552h.02z"/><path d="M166.556 49.433c-1.546-.364-2.81-.869-3.794-1.476l2.128-4.852c.924.546 1.988.99 3.132 1.314 1.165.324 2.269.486 3.333.486.923 0 1.566-.081 1.967-.263.402-.182.583-.445.583-.81 0-.404-.261-.727-.763-.93-.522-.201-1.365-.424-2.53-.666-1.506-.324-2.771-.668-3.775-1.031a6.478 6.478 0 01-2.63-1.8c-.743-.829-1.124-1.961-1.124-3.397 0-1.233.341-2.365 1.044-3.376.683-1.011 1.727-1.82 3.092-2.406 1.365-.586 3.032-.87 4.999-.87 1.345 0 2.671.142 3.956.445 1.305.283 2.449.728 3.433 1.274l-1.988 4.812c-1.927-.97-3.734-1.476-5.461-1.476-1.727 0-2.55.404-2.55 1.233 0 .405.261.688.763.89.502.202 1.325.404 2.49.627 1.485.283 2.75.606 3.774.97a6.473 6.473 0 012.671 1.8c.763.829 1.124 1.96 1.124 3.376 0 1.233-.341 2.366-1.044 3.377-.683 1.01-1.727 1.8-3.092 2.406-1.365.586-3.032.89-4.999.89a20.4 20.4 0 01-4.739-.547zM201.711 29.802v19.733h-6.605v-7.279h-6.104v7.279h-6.606V29.802h6.606v6.995h6.104v-6.995h6.605zM209.502 48.666c-1.687-.89-2.992-2.103-3.955-3.68-.944-1.577-1.426-3.336-1.426-5.317 0-1.982.482-3.74 1.426-5.318.943-1.577 2.268-2.79 3.955-3.68 1.686-.89 3.574-1.334 5.682-1.334 2.108 0 3.995.445 5.682 1.334 1.686.89 2.991 2.103 3.955 3.68.944 1.577 1.426 3.336 1.426 5.318 0 1.981-.482 3.74-1.426 5.317s-2.269 2.79-3.955 3.68c-1.687.89-3.574 1.334-5.682 1.334-2.108 0-3.996-.445-5.682-1.334zm7.91-4.67c.663-.405 1.185-.971 1.587-1.72.401-.747.582-1.617.582-2.607 0-.991-.201-1.86-.582-2.609-.402-.748-.924-1.314-1.587-1.718-.662-.404-1.405-.607-2.228-.607-.823 0-1.566.203-2.229.607-.662.404-1.184.97-1.586 1.718-.401.748-.582 1.618-.582 2.609 0 .99.201 1.86.582 2.608.402.748.924 1.314 1.586 1.718a4.196 4.196 0 002.229.607c.823 0 1.566-.202 2.228-.607zM242.81 30.712c1.345.606 2.389 1.476 3.112 2.588.722 1.132 1.084 2.446 1.084 3.942s-.362 2.81-1.084 3.943c-.723 1.132-1.767 2.001-3.112 2.588-1.346.606-2.932.91-4.739.91h-2.831v4.852h-6.605V29.802h9.436c1.807 0 3.393.303 4.739.91zm-3.133 8.249c.442-.405.663-.97.663-1.699 0-.727-.221-1.294-.663-1.698-.441-.404-1.124-.606-2.007-.606h-2.41v4.63h2.41c.903 0 1.566-.203 2.007-.607v-.02zM35.237 38.436l-5.26 1.573-.31-20.012L19.44 43.203l-.015-.031v.031l-5.23 1.573-.154-20.012L2.467 49.559h46.408V7.772L35.237 38.436z"/><path d="M13.949 10.73l5.136-1.573.201 19.808L29.45 5.979l5.167-1.59.357 19.714L45.85 0H0v40.828L13.949 10.73z"/></symbol><symbol id="icon-mail" viewBox="0 0 24 24"><path d="M15.203 12.292l5.837 5.003c.125-.285.189-.592.189-.902V8.455l-6.026 3.837zM12.527 12.195l8.624-5.488A2.279 2.279 0 0018.955 5H5.283a2.279 2.279 0 00-2.197 1.707l8.625 5.488a.765.765 0 00.816 0zM3 8.455v7.938c0 .31.064.616.188.9l5.838-5.001L3 8.455zM13.87 13.138l-.532.34a2.29 2.29 0 01-2.446 0l-.532-.34c-.011.01-.016.024-.027.034l-6.106 5.23c.322.175.683.267 1.05.27h13.671a2.246 2.246 0 001.05-.27l-6.1-5.23c-.013-.01-.017-.024-.028-.034z"/></symbol><symbol id="icon-menu" viewBox="0 0 24 24"><path d="M3 7.5a.5.5 0 01.5-.5h17a.5.5 0 010 1h-17a.5.5 0 01-.5-.5zM3 11.5a.5.5 0 01.5-.5h17a.5.5 0 010 1h-17a.5.5 0 01-.5-.5zM3 15.5a.5.5 0 01.5-.5h17a.5.5 0 010 1h-17a.5.5 0 01-.5-.5z"/></symbol><symbol id="icon-phone" viewBox="0 0 24 24"><path d="M20.584 16.654c-.05-.15-.367-.371-.951-.663a29.093 29.093 0 00-.676-.375 64.66 64.66 0 01-.794-.439 26.487 26.487 0 01-.67-.387 16.774 16.774 0 00-.313-.22 3.515 3.515 0 00-.445-.269.819.819 0 00-.356-.087c-.167 0-.376.119-.626.356-.25.238-.48.497-.688.777-.208.28-.43.538-.663.775-.234.238-.426.357-.576.357a.853.853 0 01-.282-.062 2.92 2.92 0 01-.256-.107 4.624 4.624 0 01-.3-.175 7.751 7.751 0 00-.238-.144c-1.143-.634-2.124-1.36-2.942-2.178-.817-.818-1.543-1.798-2.177-2.941a7.28 7.28 0 00-.144-.238 4.534 4.534 0 01-.175-.3 2.723 2.723 0 01-.107-.257.847.847 0 01-.062-.281c0-.15.119-.342.356-.576.238-.234.497-.455.776-.663.28-.209.538-.438.776-.689.238-.25.357-.458.357-.625a.817.817 0 00-.088-.357 3.478 3.478 0 00-.269-.444c-.12-.176-.194-.28-.219-.313a27.455 27.455 0 01-.388-.67c-.133-.237-.28-.503-.438-.795a29.751 29.751 0 00-.375-.675c-.292-.584-.513-.901-.663-.951A.701.701 0 006.705 3c-.226 0-.52.042-.883.125-.363.084-.648.171-.857.263-.417.175-.86.684-1.327 1.527C3.213 5.699 3 6.475 3 7.243c0 .225.015.444.044.657a5.4 5.4 0 00.156.72c.075.266.136.465.182.594.046.129.131.36.256.694.125.334.2.539.225.614.292.817.639 1.547 1.04 2.19.658 1.068 1.557 2.171 2.696 3.31 1.139 1.14 2.243 2.039 3.31 2.698.643.4 1.373.746 2.19 1.039.076.024.28.1.614.225.334.125.565.21.695.256.129.046.327.107.594.182.267.075.507.127.72.157.213.029.432.044.657.044.767 0 1.543-.213 2.328-.639.842-.467 1.351-.91 1.526-1.327.093-.208.18-.494.263-.857.084-.363.126-.657.126-.882a.7.7 0 00-.038-.264z"/></symbol><symbol id="icon-right" viewBox="0 0 24 24"><path d="M15.7 12.7l-6 6c-.2.2-.4.3-.7.3-.3 0-.5-.1-.7-.3-.4-.4-.4-1 0-1.4l5.3-5.3-5.3-5.3c-.4-.4-.4-1 0-1.4.4-.4 1-.4 1.4 0l6 6c.4.4.4 1 0 1.4z"/></symbol><symbol id="icon-tgm" viewBox="0 0 24 24"><path d="M21.175 3.198l-18.49 7.095c-.743.33-.995.992-.179 1.352l4.743 1.5L18.72 6.09c.625-.443 1.266-.325.715.162l-9.85 8.876-.31 3.756c.287.58.812.583 1.146.294l2.726-2.566 4.667 3.478c1.084.64 1.674.227 1.907-.944l3.061-14.426c.318-1.44-.224-2.075-1.606-1.523z"/></symbol> <view id="icon-close-view-dark" viewBox="0 0 24 24"/><view id="icon-close-view-white" viewBox="0 34 24 24"/><view id="icon-close-view-accent" viewBox="0 68 24 24"/><view id="icon-down-view-dark" viewBox="0 102 12 5"/><view id="icon-down-view-white" viewBox="0 117 12 5"/><view id="icon-down-view-accent" viewBox="0 132 12 5"/><view id="icon-fb-view-dark" viewBox="0 147 24 24"/><view id="icon-fb-view-white" viewBox="0 181 24 24"/><view id="icon-fb-view-accent" viewBox="0 215 24 24"/><view id="icon-in-view-dark" viewBox="0 249 24 24"/><view id="icon-in-view-white" viewBox="0 283 24 24"/><view id="icon-in-view-accent" viewBox="0 317 24 24"/><view id="icon-inst-view-dark" viewBox="0 351 24 24"/><view id="icon-inst-view-white" viewBox="0 385 24 24"/><view id="icon-inst-view-accent" viewBox="0 419 24 24"/><view id="icon-left-view-dark" viewBox="0 453 24 24"/><view id="icon-left-view-white" viewBox="0 487 24 24"/><view id="icon-left-view-accent" viewBox="0 521 24 24"/><view id="icon-logo-short-view-dark" viewBox="0 555 49 50"/><view id="icon-logo-short-view-white" viewBox="0 615 49 50"/><view id="icon-logo-short-view-accent" viewBox="0 675 49 50"/><view id="icon-logo-view-dark" viewBox="0 735 247 50"/><view id="icon-logo-view-white" viewBox="0 795 247 50"/><view id="icon-logo-view-accent" viewBox="0 855 247 50"/><view id="icon-mail-view-dark" viewBox="0 915 24 24"/><view id="icon-mail-view-white" viewBox="0 949 24 24"/><view id="icon-mail-view-accent" viewBox="0 983 24 24"/><view id="icon-menu-view-dark" viewBox="0 1017 24 24"/><view id="icon-menu-view-white" viewBox="0 1051 24 24"/><view id="icon-menu-view-accent" viewBox="0 1085 24 24"/><view id="icon-phone-view-dark" viewBox="0 1119 24 24"/><view id="icon-phone-view-white" viewBox="0 1153 24 24"/><view id="icon-phone-view-accent" viewBox="0 1187 24 24"/><view id="icon-right-view-dark" viewBox="0 1221 24 24"/><view id="icon-right-view-white" viewBox="0 1255 24 24"/><view id="icon-right-view-accent" viewBox="0 1289 24 24"/><view id="icon-tgm-view-dark" viewBox="0 1323 24 24"/><view id="icon-tgm-view-white" viewBox="0 1357 24 24"/><view id="icon-tgm-view-accent" viewBox="0 1391 24 24"/> <use xlink:href="#icon-close" x="0" y="0" width="24" height="24" style="fill:#111213"/><use xlink:href="#icon-close" x="0" y="34" width="24" height="24" style="fill:#ffffff"/><use xlink:href="#icon-close" x="0" y="68" width="24" height="24" style="fill:#dbe11f"/><use xlink:href="#icon-down" x="0" y="102" width="12" height="5" style="fill:#111213"/><use xlink:href="#icon-down" x="0" y="117" width="12" height="5" style="fill:#ffffff"/><use xlink:href="#icon-down" x="0" y="132" width="12" height="5" style="fill:#dbe11f"/><use xlink:href="#icon-fb" x="0" y="147" width="24" height="24" style="fill:#111213"/><use xlink:href="#icon-fb" x="0" y="181" width="24" height="24" style="fill:#ffffff"/><use xlink:href="#icon-fb" x="0" y="215" width="24" height="24" style="fill:#dbe11f"/><use xlink:href="#icon-in" x="0" y="249" width="24" height="24" style="fill:#111213"/><use xlink:href="#icon-in" x="0" y="283" width="24" height="24" style="fill:#ffffff"/><use xlink:href="#icon-in" x="0" y="317" width="24" height="24" style="fill:#dbe11f"/><use xlink:href="#icon-inst" x="0" y="351" width="24" height="24" style="fill:#111213"/><use xlink:href="#icon-inst" x="0" y="385" width="24" height="24" style="fill:#ffffff"/><use xlink:href="#icon-inst" x="0" y="419" width="24" height="24" style="fill:#dbe11f"/><use xlink:href="#icon-left" x="0" y="453" width="24" height="24" style="fill:#111213"/><use xlink:href="#icon-left" x="0" y="487" width="24" height="24" style="fill:#ffffff"/><use xlink:href="#icon-left" x="0" y="521" width="24" height="24" style="fill:#dbe11f"/><use xlink:href="#icon-logo-short" x="0" y="555" width="49" height="50" style="fill:#111213"/><use xlink:href="#icon-logo-short" x="0" y="615" width="49" height="50" style="fill:#ffffff"/><use xlink:href="#icon-logo-short" x="0" y="675" width="49" height="50" style="fill:#dbe11f"/><use xlink:href="#icon-logo" x="0" y="735" width="247" height="50" style="fill:#111213"/><use xlink:href="#icon-logo" x="0" y="795" width="247" height="50" style="fill:#ffffff"/><use xlink:href="#icon-logo" x="0" y="855" width="247" height="50" style="fill:#dbe11f"/><use xlink:href="#icon-mail" x="0" y="915" width="24" height="24" style="fill:#111213"/><use xlink:href="#icon-mail" x="0" y="949" width="24" height="24" style="fill:#ffffff"/><use xlink:href="#icon-mail" x="0" y="983" width="24" height="24" style="fill:#dbe11f"/><use xlink:href="#icon-menu" x="0" y="1017" width="24" height="24" style="fill:#111213"/><use xlink:href="#icon-menu" x="0" y="1051" width="24" height="24" style="fill:#ffffff"/><use xlink:href="#icon-menu" x="0" y="1085" width="24" height="24" style="fill:#dbe11f"/><use xlink:href="#icon-phone" x="0" y="1119" width="24" height="24" style="fill:#111213"/><use xlink:href="#icon-phone" x="0" y="1153" width="24" height="24" style="fill:#ffffff"/><use xlink:href="#icon-phone" x="0" y="1187" width="24" height="24" style="fill:#dbe11f"/><use xlink:href="#icon-right" x="0" y="1221" width="24" height="24" style="fill:#111213"/><use xlink:href="#icon-right" x="0" y="1255" width="24" height="24" style="fill:#ffffff"/><use xlink:href="#icon-right" x="0" y="1289" width="24" height="24" style="fill:#dbe11f"/><use xlink:href="#icon-tgm" x="0" y="1323" width="24" height="24" style="fill:#111213"/><use xlink:href="#icon-tgm" x="0" y="1357" width="24" height="24" style="fill:#ffffff"/><use xlink:href="#icon-tgm" x="0" y="1391" width="24" height="24" style="fill:#dbe11f"/></svg>